<?xml version="1.0" standalone="no"?><!DOCTYPE svg PUBLIC "-//W3C//DTD SVG 1.1//EN" "http://www.w3.org/Graphics/SVG/1.1/DTD/svg11.dtd"><svg t="1567663669908" class="icon" viewBox="0 0 1024 1024" version="1.1" xmlns="http://www.w3.org/2000/svg" p-id="6843" xmlns:xlink="http://www.w3.org/1999/xlink" width="35" height="35"><defs><style type="text/css"></style></defs><path d="M788.842733 146.596542a485.068578 485.068578 0 0 1 86.347229 78.14224 510.614455 510.614455 0 0 1 64.763128 94.31408 465.389593 465.389593 0 0 1 41.014123 107.249385 475.088367 475.088367 0 0 1 14.071881 114.794079q0 100.245919-38.318816 188.097757t-103.62317 153.058773Q787.76028 947.470614 699.789372 985.735307t-188.346721 38.264693q-99.304185 0-187.264269-38.264693t-153.816489-103.471627Q104.516313 817.045922 66.738723 729.204908T28.961134 541.107151a468.701898 468.701898 0 0 1 13.487357-112.098773 497.495132 497.495132 0 0 1 38.318816-104.554079 461.005661 461.005661 0 0 1 61.526595-92.701225 524.231707 524.231707 0 0 1 82.039069-77.611839c15.825454-11.495645 32.841606-15.305877 51.264947-12.989429 11.906977 1.537082 24.192812 12.480676 25.253615 25.71907 1.786046 22.168626-13.963636 39.726004-31.726681 53.256659Q189.164092 278.525843 146.634536 363.487533T104.12663 546.086432q0 83.684397 31.72668 157.864861t86.942579 129.34224q55.205073 55.205073 129.461309 87.494629t158.038053 32.332854q83.770993 0 158.038054-32.332854t129.461309-87.494629q55.205073-55.205073 87.570401-129.34224T917.654571 546.086432a400.669763 400.669763 0 0 0-45.668668-187.036954q-45.690317-88.133276-128.184016-145.200167c-18.618182-12.675518-32.278731-30.655053-30.02723-52.845327 1.60203-15.749683 11.008541-23.911374 23.251078-25.71907 18.780549-2.781903 35.980718 0.541226 51.806173 11.311628z" p-id="6844" fill="#d81e06"></path><path d="M501.245949 0.000011A42.930063 42.930063 0 0 1 544.208486 42.930074v429.354752a42.935475 42.935475 0 0 1-85.870951 0V42.930074A42.930063 42.930063 0 0 1 501.245949 0.000011z" p-id="6845" fill="#d81e06"></path></svg>