<?xml version="1.0" standalone="no"?><!DOCTYPE svg PUBLIC "-//W3C//DTD SVG 1.1//EN" "http://www.w3.org/Graphics/SVG/1.1/DTD/svg11.dtd"><svg t="1567663811970" class="icon" viewBox="0 0 1293 1024" version="1.1" xmlns="http://www.w3.org/2000/svg" p-id="8974" xmlns:xlink="http://www.w3.org/1999/xlink" width="44.1943359375" height="35"><defs><style type="text/css"></style></defs><path d="M1239.578947 0H53.894737a53.894737 53.894737 0 0 0-53.894737 53.894737v673.68421a53.894737 53.894737 0 0 0 53.894737 53.894737h538.947368v134.736842h-215.578947a53.894737 53.894737 0 0 0 0 107.789474h538.947368a53.894737 53.894737 0 0 0 0-107.789474h-215.578947v-134.736842h538.947368a53.894737 53.894737 0 0 0 53.894737-53.894737V53.894737a53.894737 53.894737 0 0 0-53.894737-53.894737z m-53.894736 673.684211H107.789474V107.789474h1077.894737z" fill="#d81e06" p-id="8975"></path></svg>