<?xml version="1.0" standalone="no"?><!DOCTYPE svg PUBLIC "-//W3C//DTD SVG 1.1//EN" "http://www.w3.org/Graphics/SVG/1.1/DTD/svg11.dtd"><svg t="1567257598708" class="icon" viewBox="0 0 1024 1024" version="1.1" xmlns="http://www.w3.org/2000/svg" p-id="980" xmlns:xlink="http://www.w3.org/1999/xlink" width="28" height="28"><defs><style type="text/css"></style></defs><path d="M894.4 256c49.6 73.6 80 163.2 80 259.2 0 256-208 464-464 464s-464-208-464-464 208-464 464-464c73.6 0 144 17.6 206.4 48" fill="#FFF100" p-id="981"></path><path d="M508.8 1011.2c-273.6 0-496-222.4-496-496s222.4-496 496-496c76.8 0 152 17.6 220.8 51.2 16 8 22.4 27.2 14.4 43.2-8 16-27.2 22.4-43.2 14.4-59.2-30.4-124.8-44.8-192-44.8-238.4 0-432 193.6-432 432s193.6 432 432 432 432-193.6 432-432c0-86.4-25.6-169.6-73.6-241.6-9.6-14.4-6.4-35.2 8-44.8 14.4-9.6 35.2-6.4 44.8 8C976 320 1004.8 416 1004.8 515.2c0 273.6-222.4 496-496 496z" fill="" p-id="982"></path><path d="M819.2 168m-48 0a48 48 0 1 0 96 0 48 48 0 1 0-96 0Z" fill="" p-id="983"></path><path d="M392 305.6l363.2 209.6-363.2 209.6z" fill="" p-id="984"></path></svg>