<?xml version="1.0" standalone="no"?><!DOCTYPE svg PUBLIC "-//W3C//DTD SVG 1.1//EN" "http://www.w3.org/Graphics/SVG/1.1/DTD/svg11.dtd"><svg t="1567299199001" class="icon" viewBox="0 0 1024 1024" version="1.1" xmlns="http://www.w3.org/2000/svg" p-id="15930" width="18" height="18" xmlns:xlink="http://www.w3.org/1999/xlink"><defs><style type="text/css"></style></defs><path d="M896 1024a64 64 0 0 1-64-64V448a64 64 0 0 1 128 0v512a64 64 0 0 1-64 64z m-256 0a64 64 0 0 1-64-64V64a64 64 0 0 1 128 0v896a64 64 0 0 1-64 64z m-256 0a64 64 0 0 1-64-64v-256a64 64 0 0 1 128 0v256a64 64 0 0 1-64 64z m-256 0a64 64 0 0 1-64-64V320a64 64 0 0 1 128 0v640a64 64 0 0 1-64 64z" fill="#ef4b4b" p-id="15931"></path></svg>