<?xml version="1.0" standalone="no"?><!DOCTYPE svg PUBLIC "-//W3C//DTD SVG 1.1//EN" "http://www.w3.org/Graphics/SVG/1.1/DTD/svg11.dtd"><svg t="1567589423979" class="icon" viewBox="0 0 1024 1024" version="1.1" xmlns="http://www.w3.org/2000/svg" p-id="9354" xmlns:xlink="http://www.w3.org/1999/xlink" width="35" height="35"><defs><style type="text/css"></style></defs><path d="M512.6 522c23.7 0 43-19.4 43-43V107.2c0-23.7-19.4-43-43-43-23.7 0-43 19.4-43 43V479c0 23.6 19.4 43 43 43z" p-id="9355" fill="#ffffff"></path><path d="M896.6 395.2c-21.1-48.1-51.3-91.3-89.7-128.3C768.6 230 724 201 674.3 180.7c-1.5-0.6-3-1.2-4.4-1.8l-0.1 0.2c-5.2-2.4-10.9-3.8-17-3.8-22.1 0-40 17.9-40 40 0 16 9.4 29.8 23 36.2v0.1c0.8 0.3 1.5 0.6 2.3 0.9 0.3 0.1 0.7 0.3 1 0.4 123.3 48.2 210.5 164.5 210.5 300 0 178.5-151.3 323.7-337.2 323.7-186 0-337.2-145.2-337.2-323.7 0-135.7 87.5-252.2 211.2-300.2l-0.1-0.3c14.6-6 24.9-20.3 24.9-37 0-22.1-17.9-40-40-40-6.8 0-13.1 1.7-18.7 4.6-0.6 0.3-1.3 0.5-1.9 0.8C301 201 256.4 230 218 267c-38.4 37-68.6 80.2-89.7 128.3-21.9 49.9-33 103-33 157.6s11.1 107.7 33 157.6c21.1 48.1 51.3 91.3 89.7 128.3 38.3 36.9 82.9 65.9 132.6 86.2 51.3 20.9 105.8 31.5 161.9 31.5 56.1 0 110.6-10.6 161.9-31.5 49.6-20.2 94.2-49.2 132.6-86.2 38.4-37 68.6-80.2 89.7-128.3 21.9-49.9 33-103 33-157.6s-11.2-107.8-33.1-157.7z" p-id="9356" fill="#ffffff"></path></svg>