<?xml version="1.0" standalone="no"?><!DOCTYPE svg PUBLIC "-//W3C//DTD SVG 1.1//EN" "http://www.w3.org/Graphics/SVG/1.1/DTD/svg11.dtd"><svg t="1567242139318" class="icon" viewBox="0 0 1024 1024" version="1.1" xmlns="http://www.w3.org/2000/svg" p-id="1803" xmlns:xlink="http://www.w3.org/1999/xlink" width="28" height="28"><defs><style type="text/css"></style></defs><path d="M576 277.333333v268.8c-23.466667-14.933333-51.2-23.466667-85.333333-23.466666-72.533333 0-128 42.666667-128 98.133333s55.466667 98.133333 128 98.133333 128-42.666667 128-98.133333V277.333333h-42.666667z m-85.333333 396.8c-46.933333 0-85.333333-25.6-85.333334-55.466666s38.4-55.466667 85.333334-55.466667 85.333333 25.6 85.333333 55.466667-38.4 55.466667-85.333333 55.466666z" fill="#8a8a8a" p-id="1804"></path><path d="M770.133333 322.133333l-29.866666 29.866667C795.733333 411.733333 832 488.533333 832 576c0 177.066667-142.933333 320-320 320S192 753.066667 192 576c0-168.533333 132.266667-307.2 298.666667-317.866667v-42.666666C300.8 226.133333 149.333333 384 149.333333 576c0 200.533333 162.133333 362.666667 362.666667 362.666667s362.666667-162.133333 362.666667-362.666667c0-98.133333-40.533333-187.733333-104.533334-253.866667z" fill="#8a8a8a" p-id="1805"></path><path d="M802.133333 292.266667l29.866667-29.866667c-68.266667-68.266667-155.733333-115.2-256-130.133333v42.666666c87.466667 14.933333 166.4 57.6 226.133333 117.333334z" fill="#8a8a8a" p-id="1806"></path></svg>