<?xml version="1.0" standalone="no"?><!DOCTYPE svg PUBLIC "-//W3C//DTD SVG 1.1//EN" "http://www.w3.org/Graphics/SVG/1.1/DTD/svg11.dtd"><svg t="1567242320561" class="icon" viewBox="0 0 1024 1024" version="1.1" xmlns="http://www.w3.org/2000/svg" p-id="2715" xmlns:xlink="http://www.w3.org/1999/xlink" width="28" height="28"><defs><style type="text/css"></style></defs><path d="M588.8 900.266667H405.333333l-34.133333-93.866667-108.8 76.8L128 748.8l87.466667-121.6-123.733334-40.533333v-187.733334l110.933334-19.2L128 260.266667 260.266667 128l104.533333 74.666667 38.4-110.933334h183.466667l42.666666 113.066667L750.933333 128l132.266667 132.266667-74.666667 125.866666 91.733334 14.933334v187.733333l-106.666667 36.266667 89.6 125.866666-134.4 134.4-125.866667-89.6-34.133333 104.533334z m-155.733333-42.666667h123.733333l44.8-130.133333 142.933333 100.266666 83.2-83.2-100.266666-142.933333 130.133333-44.8v-119.466667l-117.333333-21.333333 89.6-149.333333-85.333334-85.333334-136.533333 85.333334-49.066667-132.266667h-123.733333l-46.933333 134.4-121.6-85.333333-83.2 83.2 87.466666 147.2-136.533333 23.466666v119.466667l149.333333 46.933333-100.266666 140.8 83.2 83.2 123.733333-87.466666 42.666667 117.333333z" fill="#8a8a8a" p-id="2716"></path><path d="M582.4 622.933333c-57.6 29.866667-128 21.333333-177.066667-25.6-57.6-57.6-57.6-153.6 0-211.2s153.6-57.6 211.2 0c53.333333 53.333333 57.6 136.533333 14.933334 194.133334l29.866666 29.866666c59.733333-74.666667 55.466667-185.6-14.933333-256-74.666667-74.666667-196.266667-74.666667-270.933333 0s-74.666667 196.266667 0 270.933334c64 64 164.266667 72.533333 236.8 27.733333l-29.866667-29.866667z" fill="#8a8a8a" p-id="2717"></path></svg>